<svg width="130" height="27" viewBox="0 0 130 27" fill="none" xmlns="http://www.w3.org/2000/svg">
<path d="M0.383274 20.1245C0.258828 19.9964 0.160895 19.8447 0.0951532 19.6783C0.0294113 19.5118 -0.00283384 19.3339 0.000286582 19.1548V1.3683C-0.00347174 1.18796 0.029771 1.00878 0.0979382 0.841937C0.166105 0.675097 0.267733 0.524185 0.396479 0.398616C0.516913 0.270632 0.662414 0.169138 0.823799 0.10055C0.985184 0.0319611 1.15895 -0.00223333 1.33413 0.000113073C1.51306 -0.00094456 1.69042 0.0337226 1.85592 0.102106C2.02143 0.17049 2.17181 0.271227 2.29833 0.398486C2.42485 0.525746 2.52501 0.676995 2.59299 0.84347C2.66098 1.00994 2.69545 1.18834 2.6944 1.3683V17.7866H12.1502C12.5109 17.7866 12.8569 17.9308 13.112 18.1874C13.3671 18.4439 13.5104 18.7919 13.5104 19.1548C13.5104 19.5177 13.3671 19.8657 13.112 20.1223C12.8569 20.3789 12.5109 20.523 12.1502 20.523H1.33413C1.15664 20.528 0.980119 20.495 0.816216 20.4263C0.652313 20.3576 0.504754 20.2548 0.383274 20.1245Z" fill="#F94A56"/>
<path d="M24.8097 6.85212C25.8616 7.4846 26.7321 8.39615 27.3316 9.49299C27.9541 10.6308 28.2739 11.9196 28.258 13.2276V19.1095C28.258 19.4668 28.121 19.8094 27.8773 20.062C27.6336 20.3147 27.3031 20.4566 26.9584 20.4566C26.6138 20.4566 26.2832 20.3147 26.0395 20.062C25.7958 19.8094 25.6589 19.4668 25.6589 19.1095V18.1358C25.0783 18.8869 24.3386 19.4894 23.4972 19.8964C22.5359 20.3582 21.4806 20.5704 20.4225 20.5146C19.3644 20.4588 18.3352 20.1368 17.4241 19.5763C16.4252 18.9405 15.6148 18.0313 15.0823 16.9488C14.5079 15.795 14.2163 14.5124 14.2331 13.2142C14.2191 11.9082 14.534 10.621 15.1467 9.47965C15.7399 8.37345 16.6173 7.45933 17.6814 6.83878C18.7708 6.20682 19.9988 5.87609 21.2472 5.87843C22.4956 5.88077 23.7224 6.21608 24.8097 6.85212ZM23.5616 17.509C24.2435 17.0821 24.8032 16.4744 25.1828 15.7484C25.5759 14.9714 25.7749 14.1048 25.7618 13.2276C25.7733 12.3463 25.5744 11.4757 25.1828 10.6934C24.8147 9.95532 24.2527 9.3403 23.5616 8.91946C22.8614 8.50012 22.067 8.27934 21.2584 8.27934C20.4498 8.27934 19.6554 8.50012 18.9552 8.91946C18.269 9.35078 17.7051 9.96285 17.3212 10.6934C16.9195 11.4723 16.7158 12.3444 16.7293 13.2276C16.7142 14.1066 16.918 14.9748 17.3212 15.7484C17.7045 16.4821 18.2738 17.0935 18.9676 17.5165C19.6614 17.9396 20.4535 18.1583 21.2584 18.1492C22.0692 18.1672 22.8682 17.9451 23.5616 17.509Z" fill="#F94A56"/>
<path d="M40.2256 19.6795C38.7616 18.7625 37.5605 17.4426 36.7506 15.8608C35.8998 14.2273 35.4618 12.3896 35.479 10.5252C35.4618 8.67334 35.9 6.84856 36.7506 5.22947C37.5676 3.65311 38.767 2.33505 40.2256 1.41072C41.6953 0.473969 43.3818 -0.014215 45.0981 0.000315141C46.3571 0.000315141 47.4525 0.17329 48.3716 0.532545C49.2907 0.8918 50.2224 1.46395 51.1667 2.26229C51.3382 2.38772 51.4768 2.55712 51.5696 2.75461C51.6378 2.94129 51.672 3.13993 51.6703 3.34005C51.6728 3.50363 51.6414 3.66581 51.5783 3.81522C51.5153 3.96462 51.422 4.09763 51.3052 4.20493C51.0798 4.42755 50.7827 4.55124 50.4742 4.55088C50.1551 4.54707 49.8475 4.42458 49.6054 4.20493C49.0124 3.65396 48.3411 3.20495 47.6162 2.87435C46.9741 2.60824 46.1305 2.46188 45.0981 2.46188C43.8333 2.45349 42.5927 2.82744 41.5224 3.53964C40.4353 4.26505 39.5423 5.27289 38.9288 6.4669C38.3006 7.70941 37.9719 9.09644 37.9719 10.5052C37.9719 11.914 38.3006 13.301 38.9288 14.5435C39.539 15.7365 40.4329 16.7408 41.5224 17.4575C42.592 18.1714 43.8331 18.5455 45.0981 18.5352C46.6971 18.5352 48.2205 17.9631 49.681 16.8055C49.9147 16.6098 50.2014 16.4979 50.4994 16.4861C50.6464 16.4822 50.7925 16.5122 50.9274 16.5743C51.0622 16.6364 51.1826 16.7289 51.28 16.8454C51.4927 17.1026 51.6052 17.4354 51.5947 17.7768C51.5942 17.9592 51.5581 18.1396 51.4888 18.3067C51.4195 18.4738 51.3184 18.6241 51.1918 18.7481C49.4793 20.2462 47.3211 21.0568 45.0981 21.0367C43.3855 21.0777 41.6966 20.6073 40.2256 19.6795Z" fill="#F94A56"/>
<path d="M63.2784 6.85212C64.3304 7.4846 65.2009 8.39615 65.8003 9.49299C66.4229 10.6308 66.7426 11.9196 66.7267 13.2276V19.1095C66.7267 19.4668 66.5898 19.8094 66.3461 20.062C66.1024 20.3147 65.7718 20.4566 65.4272 20.4566C65.0825 20.4566 64.752 20.3147 64.5082 20.062C64.2645 19.8094 64.1276 19.4668 64.1276 19.1095V18.1358C63.547 18.8869 62.8074 19.4894 61.966 19.8964C61.0047 20.3582 59.9494 20.5704 58.8912 20.5146C57.8331 20.4588 56.804 20.1368 55.8928 19.5763C54.8939 18.9405 54.0836 18.0313 53.5511 16.9488C52.9767 15.795 52.685 14.5124 52.7019 13.2142C52.6879 11.9082 53.0027 10.621 53.6154 9.47965C54.2086 8.37345 55.086 7.45933 56.1502 6.83878C57.2396 6.20682 58.4676 5.87609 59.716 5.87843C60.9644 5.88077 62.1912 6.21608 63.2784 6.85212ZM62.0303 17.509C62.7123 17.0821 63.2719 16.4744 63.6515 15.7484C64.0446 14.9714 64.2437 14.1048 64.2305 13.2276C64.2421 12.3463 64.0432 11.4757 63.6515 10.6934C63.2835 9.95532 62.7214 9.3403 62.0303 8.91946C61.3302 8.50012 60.5358 8.27934 59.7272 8.27934C58.9185 8.27934 58.1241 8.50012 57.424 8.91946C56.7377 9.35078 56.1739 9.96285 55.7899 10.6934C55.3883 11.4723 55.1846 12.3444 55.198 13.2276C55.1829 14.1066 55.3868 14.9748 55.7899 15.7484C56.1732 16.4821 56.7425 17.0935 57.4363 17.5165C58.1302 17.9396 58.9222 18.1583 59.7272 18.1492C60.5378 18.1654 61.3363 17.9434 62.0303 17.509Z" fill="#F94A56"/>
<path d="M79.1379 6.81671C80.2384 7.43515 81.1471 8.33998 81.7658 9.43325C82.401 10.564 82.7274 11.8394 82.7129 13.1334C82.7304 14.4197 82.428 15.6904 81.8325 16.8335C81.2767 17.9035 80.4375 18.8034 79.4047 19.4368C78.3688 20.0626 77.1763 20.3877 75.9631 20.3751C74.9769 20.3797 74.0019 20.1676 73.1084 19.754C72.2417 19.3418 71.4767 18.7464 70.8673 18.0097V25.0664C70.8766 25.2441 70.8481 25.4217 70.7838 25.5879C70.7194 25.754 70.6207 25.905 70.4938 26.031C70.3649 26.1543 70.2123 26.2507 70.045 26.3142C69.8777 26.3778 69.6991 26.4073 69.5201 26.4011C69.3414 26.4075 69.1632 26.3774 68.9968 26.3127C68.8304 26.2479 68.6793 26.1498 68.5528 26.0245C68.4264 25.8993 68.3274 25.7495 68.262 25.5847C68.1966 25.4198 68.1662 25.2434 68.1727 25.0664V13.1466C68.1563 11.8507 68.4877 10.5737 69.1332 9.44646C69.7508 8.35686 70.6542 7.45282 71.7478 6.82993C72.8777 6.20814 74.1485 5.88074 75.4411 5.87843C76.7337 5.87612 78.0057 6.19896 79.1379 6.81671ZM77.8306 17.3753C78.5416 16.9532 79.1264 16.3511 79.5248 15.631C79.9427 14.8646 80.154 14.0043 80.1384 13.1334C80.1459 12.2591 79.9351 11.3966 79.5248 10.6226C79.2214 10.0814 78.812 9.60565 78.3206 9.22329C77.8292 8.84093 77.2656 8.55964 76.663 8.39593C76.0604 8.23222 75.4308 8.18939 74.8113 8.26994C74.1917 8.35049 73.5946 8.5528 73.0551 8.86501C72.3474 9.29293 71.7674 9.8995 71.3743 10.6226C70.9682 11.3977 70.762 12.2602 70.774 13.1334C70.7604 14.0025 70.9667 14.8612 71.3743 15.631C71.7599 16.3559 72.342 16.96 73.0551 17.3753C73.7763 17.8017 74.603 18.0213 75.4428 18.0097C76.2833 18.0257 77.1111 17.8058 77.8306 17.3753Z" fill="#F94A56"/>
<path d="M86.0375 19.9632C85.0294 19.5897 84.2383 19.1096 83.664 18.5095C83.5593 18.4041 83.4759 18.2778 83.4189 18.138C83.3619 17.9982 83.3324 17.8479 83.3323 17.6959C83.3284 17.4938 83.373 17.2938 83.4622 17.1144C83.5514 16.935 83.6822 16.7819 83.8427 16.669C84.1617 16.4289 84.4552 16.2956 84.7232 16.2956C85.0549 16.2956 85.3739 16.4556 85.6802 16.7757C85.9992 17.1491 86.4841 17.4692 87.1221 17.7359C87.7709 18.0098 88.4641 18.1501 89.1638 18.1494C90.1208 18.1494 90.8609 17.976 91.3969 17.6426C91.9328 17.3091 92.188 16.8557 92.188 16.2956C92.188 15.7354 91.9328 15.2953 91.4096 14.9352C90.8864 14.5751 90.006 14.2684 88.7555 14.0283C85.5228 13.3748 83.9065 11.9878 83.9065 9.86721C83.8846 9.06966 84.1434 8.29144 84.6338 7.67998C85.1479 7.06348 85.808 6.59896 86.5479 6.33295C87.359 6.03149 88.2136 5.87811 89.0745 5.87951C90.0785 5.86215 91.076 6.05251 92.0094 6.43965C92.8771 6.81308 93.5661 7.31988 94.0638 7.97338C94.2642 8.20482 94.3815 8.50182 94.3956 8.81361C94.3956 9.10702 94.2552 9.38709 93.9617 9.62715C93.7562 9.77626 93.5098 9.85119 93.2599 9.84053C92.8172 9.83462 92.3931 9.65352 92.0732 9.33374C91.6897 8.95294 91.2329 8.66196 90.7333 8.48018C90.1808 8.29691 89.6029 8.21127 89.0234 8.22678C88.245 8.22678 87.6198 8.36015 87.1221 8.64022C86.6245 8.92029 86.382 9.29373 86.382 9.78719C86.3746 10.1016 86.4641 10.4102 86.6372 10.6674C86.8031 10.9075 87.1221 11.1209 87.5943 11.3209C88.2567 11.5799 88.94 11.7763 89.6359 11.9077C91.4734 12.2945 92.7622 12.828 93.5279 13.5215C94.2935 14.215 94.6763 15.0952 94.6763 16.1889C94.6871 16.9718 94.469 17.7396 94.051 18.3894C93.6299 19.0429 93.0174 19.5631 92.2008 19.9498C91.3841 20.3366 90.4015 20.5233 89.2659 20.5233C88.1676 20.5239 87.0767 20.3346 86.0375 19.9632Z" fill="#F94A56"/>
<path d="M108.051 6.26628C108.165 6.39552 108.254 6.54858 108.313 6.71631C108.371 6.88405 108.399 7.06302 108.393 7.24256V19.0381C108.393 19.3963 108.263 19.7399 108.032 19.9932C107.801 20.2465 107.487 20.3889 107.16 20.3889C106.833 20.3889 106.52 20.2465 106.289 19.9932C106.057 19.7399 105.928 19.3963 105.928 19.0381V18.7439C105.406 19.3141 104.783 19.7603 104.097 20.0545C103.374 20.3675 102.604 20.5263 101.827 20.5226C100.785 20.5394 99.757 20.268 98.8368 19.7335C97.9539 19.2008 97.2327 18.3965 96.762 17.4199C96.2617 16.4035 96.0176 15.1865 96.0176 13.7555V7.25594C96.0176 6.8977 96.1475 6.55413 96.3786 6.30082C96.6098 6.04751 96.9233 5.90519 97.2502 5.90519C97.5771 5.90519 97.8907 6.04751 98.1218 6.30082C98.353 6.55413 98.4829 6.8977 98.4829 7.25594V13.7555C98.4829 15.1865 98.8368 16.2698 99.5324 16.9919C100.228 17.7141 101.156 18.0886 102.315 18.0886C102.954 18.1 103.585 17.9441 104.158 17.6339C104.683 17.36 105.133 16.9405 105.464 16.4169C105.781 15.9093 105.947 15.3068 105.94 14.6917V7.22919C105.933 7.04842 105.962 6.8682 106.023 6.70008C106.084 6.53196 106.176 6.37965 106.294 6.25291C106.533 6.00987 106.848 5.87597 107.175 5.87845C107.501 5.88094 107.815 6.01961 108.051 6.26628Z" fill="#F94A56"/>
<path d="M112.539 19.9107C111.896 19.4776 111.392 18.8791 111.082 18.1829C110.726 17.3908 110.548 16.5346 110.56 15.671V1.31704C110.552 1.14242 110.582 0.968092 110.648 0.805477C110.714 0.642862 110.816 0.495629 110.945 0.373408C111.073 0.250919 111.226 0.154799 111.393 0.0908434C111.561 0.0268881 111.741 -0.00357791 111.921 0.00127092C112.101 -0.00663646 112.282 0.0224224 112.45 0.0865522C112.618 0.150682 112.77 0.248435 112.897 0.373408C113.023 0.497451 113.123 0.645 113.189 0.807172C113.255 0.969345 113.287 1.14278 113.282 1.31704V15.6577C113.282 16.3089 113.405 16.8406 113.667 17.2659C113.928 17.6912 114.244 17.8905 114.643 17.8905H115.316C115.482 17.8842 115.648 17.9144 115.8 17.9788C115.953 18.0433 116.088 18.1403 116.196 18.2627C116.428 18.5247 116.551 18.8613 116.54 19.2063C116.541 19.3932 116.493 19.5774 116.402 19.7421C116.311 19.9069 116.179 20.0471 116.017 20.1499C115.625 20.4084 115.158 20.5388 114.684 20.5221H114.629C113.883 20.5347 113.153 20.3208 112.539 19.9107Z" fill="#F94A56"/>
<path d="M129.296 13.8137C129.064 14.0338 128.757 14.1535 128.44 14.1472H118.553C118.704 15.319 119.298 16.3855 120.211 17.1212C121.12 17.8814 122.239 18.2549 123.556 18.2549C124.112 18.2514 124.664 18.1522 125.188 17.9615C125.688 17.8051 126.16 17.5663 126.584 17.2546C126.828 17.0616 127.13 16.9582 127.439 16.9612C127.722 16.9463 128 17.0417 128.216 17.2279C128.532 17.4947 128.69 17.7881 128.69 18.1215C128.689 18.2776 128.65 18.4309 128.576 18.5681C128.503 18.7053 128.397 18.8222 128.269 18.9084C127.609 19.4232 126.865 19.816 126.07 20.0687C125.261 20.3543 124.412 20.5074 123.556 20.5221C122.221 20.5458 120.902 20.2245 119.724 19.5885C118.62 18.9888 117.703 18.0879 117.078 16.9879C116.434 15.8383 116.107 14.5349 116.13 13.2136C116.112 11.8952 116.42 10.5932 117.025 9.42598C117.598 8.33265 118.466 7.42628 119.527 6.81199C120.593 6.18516 121.804 5.87842 123.161 5.87842C124.49 5.87842 125.649 6.17183 126.623 6.77198C127.594 7.36909 128.372 8.24053 128.861 9.27927C129.388 10.3462 129.638 11.5865 129.638 12.9735C129.646 13.1305 129.619 13.2872 129.56 13.4324C129.501 13.5777 129.41 13.7079 129.296 13.8137ZM120.08 9.21259C119.29 9.91944 118.79 10.853 118.579 12.04H127.242C127.084 10.8663 126.649 9.91944 125.939 9.21259C125.228 8.50575 124.293 8.159 123.147 8.159C121.897 8.159 120.87 8.51908 120.08 9.21259Z" fill="#F94A56"/>
</svg>
